<svg width="20" height="20" viewBox="0 0 20 20" fill="none" xmlns="http://www.w3.org/2000/svg">
<path fill-rule="evenodd" clip-rule="evenodd" d="M10.8583 1.41L1.7 0.0183349C1.275 -0.0483317 0.841666 0.0683349 0.516666 0.343335C0.191666 0.626668 0 1.035 0 1.46V19.0183C0 19.4766 0.375 19.8516 0.833333 19.8516H3.54166V15.4767C3.54166 14.6683 4.19166 14.0183 5 14.0183H7.08333C7.89166 14.0183 8.54166 14.6683 8.54166 15.4767V19.8516H12.0833V2.85167C12.0833 2.135 11.5667 1.52667 10.8583 1.41ZM4.58333 12.1433H3.33333C2.98833 12.1433 2.70833 11.8633 2.70833 11.5183C2.70833 11.1733 2.98833 10.8933 3.33333 10.8933H4.58333C4.92833 10.8933 5.20833 11.1733 5.20833 11.5183C5.20833 11.8633 4.92833 12.1433 4.58333 12.1433ZM3.33333 9.64333H4.58333C4.92833 9.64333 5.20833 9.36333 5.20833 9.01833C5.20833 8.67333 4.92833 8.39333 4.58333 8.39333H3.33333C2.98833 8.39333 2.70833 8.67333 2.70833 9.01833C2.70833 9.36333 2.98833 9.64333 3.33333 9.64333ZM4.58333 7.14333H3.33333C2.98833 7.14333 2.70833 6.86333 2.70833 6.51833C2.70833 6.17333 2.98833 5.89333 3.33333 5.89333H4.58333C4.92833 5.89333 5.20833 6.17333 5.20833 6.51833C5.20833 6.86333 4.92833 7.14333 4.58333 7.14333ZM3.33333 4.64333H4.58333C4.92833 4.64333 5.20833 4.36333 5.20833 4.01833C5.20833 3.67333 4.92833 3.39333 4.58333 3.39333H3.33333C2.98833 3.39333 2.70833 3.67333 2.70833 4.01833C2.70833 4.36333 2.98833 4.64333 3.33333 4.64333ZM8.74999 12.1433H7.49999C7.15499 12.1433 6.87499 11.8633 6.87499 11.5183C6.87499 11.1733 7.15499 10.8933 7.49999 10.8933H8.74999C9.09499 10.8933 9.37499 11.1733 9.37499 11.5183C9.37499 11.8633 9.09499 12.1433 8.74999 12.1433ZM7.49999 9.64333H8.74999C9.09499 9.64333 9.37499 9.36333 9.37499 9.01833C9.37499 8.67333 9.09499 8.39333 8.74999 8.39333H7.49999C7.15499 8.39333 6.87499 8.67333 6.87499 9.01833C6.87499 9.36333 7.15499 9.64333 7.49999 9.64333ZM8.74999 7.14333H7.49999C7.15499 7.14333 6.87499 6.86333 6.87499 6.51833C6.87499 6.17333 7.15499 5.89333 7.49999 5.89333H8.74999C9.09499 5.89333 9.37499 6.17333 9.37499 6.51833C9.37499 6.86333 9.09499 7.14333 8.74999 7.14333ZM7.49999 4.64333H8.74999C9.09499 4.64333 9.37499 4.36333 9.37499 4.01833C9.37499 3.67333 9.09499 3.39333 8.74999 3.39333H7.49999C7.15499 3.39333 6.87499 3.67333 6.87499 4.01833C6.87499 4.36333 7.15499 4.64333 7.49999 4.64333Z" fill="#141D2F"/>
<path fill-rule="evenodd" clip-rule="evenodd" d="M12.9165 7.64417L18.8498 8.88666C19.5307 9.0375 19.9998 9.62333 19.9998 10.3117V18.3933C19.9998 19.1975 19.3457 19.8517 18.5415 19.8517H12.9165V7.64417ZM15.6248 17.3517H16.8748C17.2198 17.3517 17.4998 17.0717 17.4998 16.7267C17.4998 16.3817 17.2198 16.1017 16.8748 16.1017H15.6248C15.2798 16.1017 14.9998 16.3817 14.9998 16.7267C14.9998 17.0717 15.2798 17.3517 15.6248 17.3517ZM16.8748 14.8517H15.6248C15.2798 14.8517 14.9998 14.5717 14.9998 14.2267C14.9998 13.8817 15.2798 13.6017 15.6248 13.6017H16.8748C17.2198 13.6017 17.4998 13.8817 17.4998 14.2267C17.4998 14.5717 17.2198 14.8517 16.8748 14.8517ZM15.6248 12.3517H16.8748C17.2198 12.3517 17.4998 12.0717 17.4998 11.7267C17.4998 11.3817 17.2198 11.1017 16.8748 11.1017H15.6248C15.2798 11.1017 14.9998 11.3817 14.9998 11.7267C14.9998 12.0717 15.2798 12.3517 15.6248 12.3517Z" fill="#141D2F"/>
</svg>
