<svg width="20" height="17" viewBox="0 0 20 17" fill="none" xmlns="http://www.w3.org/2000/svg">
<path d="M20 1.92375C19.2562 2.25 18.4637 2.46625 17.6375 2.57125C18.4875 2.06375 19.1362 1.26625 19.4412 0.305C18.6487 0.777499 17.7737 1.11125 16.8412 1.2975C16.0887 0.496249 15.0162 0 13.8462 0C11.5762 0 9.74874 1.8425 9.74874 4.10125C9.74874 4.42625 9.77624 4.73875 9.84374 5.03624C6.43499 4.87 3.41875 3.23625 1.3925 0.747499C1.03875 1.36125 0.831249 2.06375 0.831249 2.82C0.831249 4.24 1.5625 5.49874 2.6525 6.22749C1.99375 6.21499 1.3475 6.02374 0.799999 5.72249C0.799999 5.73499 0.799999 5.75124 0.799999 5.76749C0.799999 7.75999 2.22125 9.41499 4.085 9.79624C3.75125 9.88749 3.3875 9.93124 3.01 9.93124C2.7475 9.93124 2.4825 9.91624 2.23375 9.86124C2.765 11.485 4.2725 12.6787 6.06499 12.7175C4.67 13.8087 2.89875 14.4662 0.981249 14.4662C0.644999 14.4662 0.3225 14.4512 0 14.41C1.81625 15.5812 3.96875 16.25 6.28999 16.25C13.835 16.25 17.96 9.99999 17.96 4.5825C17.96 4.40125 17.9537 4.22625 17.945 4.0525C18.7587 3.475 19.4425 2.75375 20 1.92375Z" fill="#141D2F"/>
</svg>
