<svg width="20" height="20" viewBox="0 0 20 20" fill="none" xmlns="http://www.w3.org/2000/svg">
<path d="M7.40754 5.01427C5.05096 7.45249 5.56521 11.4988 8.26464 13.2913C8.35358 13.3503 8.47191 13.3386 8.54832 13.264C9.11661 12.7087 9.59737 12.1708 10.0183 11.4868C10.0827 11.3821 10.0427 11.2463 9.93463 11.1878C9.52288 10.9647 9.11317 10.5465 8.88252 10.1046L8.88225 10.1048C8.60596 9.55462 8.51189 8.93791 8.65817 8.30099C8.65832 8.30103 8.65848 8.30106 8.65864 8.30106C8.82695 7.48563 9.70238 6.72709 10.371 6.02557C10.3696 6.02511 10.3682 6.0246 10.3668 6.02413L12.8719 3.4673C13.8703 2.44838 15.5124 2.43998 16.5211 3.44866C17.54 4.44695 17.5568 6.09736 16.5585 7.11625L15.0411 8.67662C14.9709 8.74884 14.9481 8.8542 14.981 8.94944C15.3304 9.96257 15.4163 11.3911 15.1822 12.4704C15.1756 12.5006 15.2129 12.5204 15.2345 12.4983L18.464 9.2022C20.527 7.09659 20.5095 3.66837 18.4251 1.58394C16.2978 -0.543282 12.8348 -0.525579 10.7294 1.62321L7.42048 5.00044C7.4161 5.00505 7.41196 5.00974 7.40754 5.01427Z" fill="#141D2F"/>
<path d="M13.4449 13.7556C13.4448 13.7557 13.4447 13.7558 13.4447 13.7559C13.4468 13.7551 13.4487 13.7542 13.4508 13.7533C14.1098 12.5482 14.2396 11.166 13.9307 9.81852L13.9293 9.81997L13.9278 9.81931C13.6345 8.61921 12.8297 7.42751 11.7367 6.69379C11.6427 6.63068 11.4925 6.63799 11.4045 6.70919C10.8508 7.15685 10.3089 7.73089 9.95134 8.46344C9.89518 8.57845 9.93723 8.7166 10.0479 8.78084C10.4629 9.02177 10.8377 9.3745 11.0886 9.84279L11.089 9.84252C11.2845 10.1733 11.4772 10.801 11.3524 11.4755C11.3523 11.4755 11.3522 11.4755 11.3522 11.4755C11.2357 12.3696 10.3327 13.1898 9.6149 13.9289L9.61526 13.9293C9.06884 14.488 7.67984 15.904 7.12365 16.4723C6.12537 17.4911 4.47495 17.508 3.45607 16.5097C2.43719 15.5114 2.42034 13.861 3.41863 12.8421L4.94051 11.2771C5.00949 11.2061 5.03293 11.103 5.00226 11.009C4.66433 9.97215 4.57176 8.57579 4.78505 7.4977C4.79099 7.46765 4.75402 7.44846 4.73257 7.47035L1.55168 10.7169C-0.532514 12.8441 -0.51485 16.3075 1.59099 18.4133C3.7181 20.4974 7.16363 20.4622 9.24775 18.3351C9.97178 17.5252 13.0711 14.6556 13.4449 13.7556Z" fill="#141D2F"/>
</svg>
